<svg xmlns="http://www.w3.org/2000/svg" width="48" height="48" viewBox="0 0 48 48" fill="none">
  <path d="M14.012 24.7365L24.3804 15.3968C24.844 15.021 25.557 15.021 26.0215 15.3968L33.988 21.838C34.4516 22.2137 34.4516 22.7863 33.988 23.162L23.6196 32.5017C23.156 32.8775 22.443 32.8775 21.9785 32.5017L14.012 26.0605C13.5484 25.6847 13.5484 25.1121 14.012 24.7365Z" fill="#FFA116"/>
  <path d="M16.6165 29.4538L24.3804 23.1154C24.844 22.7397 25.557 22.7397 26.0215 23.1154L30.2353 26.2742C30.6989 26.65 30.6989 27.2226 30.2353 27.5983L22.4715 33.9367C22.0079 34.3125 21.2949 34.3125 20.8304 33.9367L16.6165 30.7779C16.1529 30.4022 16.1529 29.8296 16.6165 29.4538Z" fill="#000"/>
  <path d="M21.3411 8.89843L27.9333 15.6363C28.397 16.0121 28.397 16.5847 27.9333 16.9605L20.3667 23.6661C19.903 24.0419 19.1901 24.0419 18.7265 23.6661L12.1343 16.9282C11.6706 16.5524 11.6706 15.9798 12.1343 15.604L19.7009 8.89843C20.1645 8.52261 20.8775 8.52261 21.3411 8.89843Z" fill="#FFA116"/>
  <path d="M27.7968 20.1448L24.838 23.0223C24.3744 23.3981 24.3744 23.9707 24.838 24.3465L30.2064 28.5595C30.67 28.9353 31.383 28.9353 31.8465 28.5595L34.8053 25.682C35.2689 25.3063 35.2689 24.7337 34.8053 24.3579L29.437 20.1448C28.9734 19.769 28.2604 19.769 27.7968 20.1448Z" fill="#000"/>
</svg>
